# xmcd
#
# Track frame offsets:
#	150
#	21894
#	37087
#	56617
#	77167
#
# Disc length: 1262 seconds
#
# Revision: 1
# Processed by: cddbd v1.5.2PL0 Copyright (c) Steve Scherf et al.
# Submitted via: audiograbber 1.83.01
#
DISCID=3a04ec05
DTITLE=Jazmine - Woman In Love [CDM)
DYEAR=1997
DGENRE=House
TTITLE0=Woman In Love (Slow Groove Mix)
TTITLE1=Woman In Love (Dance Radio Mix)
TTITLE2=Woman In Love (Original Style Mix)
TTITLE3=Woman In Love (Caribbean Mix)
TTITLE4=Woman In Love (Underground Club Mix)
EXTD=TR.
EXTT0=
EXTT1=
EXTT2=
EXTT3=
EXTT4=
PLAYORDER=
